<svg xmlns="http://www.w3.org/2000/svg" width="1440" height="720" viewBox="0 0 1440 720" role="img" aria-labelledby="title desc">
  <title id="title">Vinted Listing Assistant</title>
  <desc id="desc">A polished dark interface preview showing product photo analysis and listing generation.</desc>
  <defs>
    <linearGradient id="bg" x1="0" y1="0" x2="1" y2="1">
      <stop offset="0" stop-color="#06101c"/>
      <stop offset="0.55" stop-color="#0a1828"/>
      <stop offset="1" stop-color="#07111f"/>
    </linearGradient>
    <linearGradient id="accent" x1="0" y1="0" x2="1" y2="1">
      <stop offset="0" stop-color="#59e0c1"/>
      <stop offset="1" stop-color="#57a8ff"/>
    </linearGradient>
    <linearGradient id="card" x1="0" y1="0" x2="1" y2="1">
      <stop offset="0" stop-color="#12243a"/>
      <stop offset="1" stop-color="#0b1727"/>
    </linearGradient>
    <radialGradient id="glow1" cx="0.5" cy="0.5" r="0.5">
      <stop offset="0" stop-color="#59e0c1" stop-opacity="0.34"/>
      <stop offset="1" stop-color="#59e0c1" stop-opacity="0"/>
    </radialGradient>
    <radialGradient id="glow2" cx="0.5" cy="0.5" r="0.5">
      <stop offset="0" stop-color="#57a8ff" stop-opacity="0.30"/>
      <stop offset="1" stop-color="#57a8ff" stop-opacity="0"/>
    </radialGradient>
    <filter id="shadow" x="-30%" y="-30%" width="160%" height="160%">
      <feDropShadow dx="0" dy="28" stdDeviation="30" flood-color="#000" flood-opacity="0.45"/>
    </filter>
    <filter id="soft" x="-30%" y="-30%" width="160%" height="160%">
      <feGaussianBlur stdDeviation="45"/>
    </filter>
  </defs>

  <rect width="1440" height="720" rx="36" fill="url(#bg)"/>
  <circle cx="1180" cy="80" r="320" fill="url(#glow2)" filter="url(#soft)"/>
  <circle cx="210" cy="650" r="310" fill="url(#glow1)" filter="url(#soft)"/>
  <g opacity="0.16">
    <path d="M0 575C180 510 280 650 465 585s290-105 470-22 295 78 505 4" fill="none" stroke="#62d8c5" stroke-width="1.5"/>
    <path d="M0 610C190 545 290 682 470 620s295-106 470-24 300 80 500 8" fill="none" stroke="#5baaff" stroke-width="1.5"/>
  </g>

  <g transform="translate(92 92)">
    <rect width="54" height="54" rx="16" fill="url(#accent)"/>
    <path d="M15 15.5h20a8 8 0 0 1 0 16H23a6.5 6.5 0 1 0 0 13h17" fill="none" stroke="#06131d" stroke-width="5.2" stroke-linecap="round"/>
    <circle cx="40" cy="43" r="4.2" fill="#06131d"/>
  </g>
  <text x="166" y="116" fill="#f6fbff" font-family="Arial, Helvetica, sans-serif" font-size="25" font-weight="700">Vinted Listing</text>
  <text x="166" y="141" fill="#8fa0b2" font-family="Arial, Helvetica, sans-serif" font-size="16" font-weight="700" letter-spacing="4">ASSISTANT</text>

  <text x="92" y="235" fill="#f7fbff" font-family="Arial, Helvetica, sans-serif" font-size="64" font-weight="800" letter-spacing="-2.5">From product photos</text>
  <text x="92" y="302" fill="url(#accent)" font-family="Arial, Helvetica, sans-serif" font-size="64" font-weight="800" letter-spacing="-2.5">to polished listing drafts.</text>
  <text x="92" y="350" fill="#a9b7c6" font-family="Arial, Helvetica, sans-serif" font-size="22">Local-first AI workflow with human review, structured output,</text>
  <text x="92" y="382" fill="#a9b7c6" font-family="Arial, Helvetica, sans-serif" font-size="22">and no automated publishing.</text>

  <g transform="translate(92 435)">
    <rect width="178" height="50" rx="14" fill="url(#accent)"/>
    <text x="89" y="32" text-anchor="middle" fill="#06131d" font-family="Arial, Helvetica, sans-serif" font-size="16" font-weight="800">OPEN SOURCE</text>
    <rect x="194" width="166" height="50" rx="14" fill="#0c1d30" stroke="#243a52"/>
    <text x="277" y="32" text-anchor="middle" fill="#d9e5ee" font-family="Arial, Helvetica, sans-serif" font-size="16" font-weight="700">LOCAL OR AZURE</text>
  </g>

  <g transform="translate(92 535)">
    <circle cx="15" cy="15" r="15" fill="#10263a" stroke="#2e5a68"/>
    <text x="15" y="21" text-anchor="middle" fill="#59e0c1" font-family="Arial, Helvetica, sans-serif" font-size="17" font-weight="800">1</text>
    <text x="40" y="20" fill="#dce7ef" font-family="Arial, Helvetica, sans-serif" font-size="17" font-weight="700">Analyze with InternVL</text>
    <path d="M242 15h46" stroke="#3d5269" stroke-width="2" stroke-linecap="round"/>
    <path d="m281 9 8 6-8 6" fill="none" stroke="#3d5269" stroke-width="2" stroke-linecap="round" stroke-linejoin="round"/>
    <circle cx="320" cy="15" r="15" fill="#10263a" stroke="#315b79"/>
    <text x="320" y="21" text-anchor="middle" fill="#68b6ff" font-family="Arial, Helvetica, sans-serif" font-size="17" font-weight="800">2</text>
    <text x="345" y="20" fill="#dce7ef" font-family="Arial, Helvetica, sans-serif" font-size="17" font-weight="700">Write with Qwen</text>
  </g>

  <g transform="translate(775 92)" filter="url(#shadow)">
    <rect width="575" height="536" rx="28" fill="#081421" stroke="#26384d"/>
    <rect width="575" height="58" rx="28" fill="#0d1c2d"/>
    <rect y="30" width="575" height="28" fill="#0d1c2d"/>
    <circle cx="24" cy="29" r="5" fill="#ff7c72"/>
    <circle cx="42" cy="29" r="5" fill="#f7c662"/>
    <circle cx="60" cy="29" r="5" fill="#52d48e"/>
    <text x="287" y="34" text-anchor="middle" fill="#9cadbd" font-family="Arial, Helvetica, sans-serif" font-size="13" font-weight="700">Vinted Listing Assistant</text>
    <rect x="500" y="20" width="55" height="20" rx="10" fill="#0c302f" stroke="#215a52"/>
    <circle cx="513" cy="30" r="3.5" fill="#59e0c1"/>
    <text x="534" y="34" text-anchor="middle" fill="#aaf3e0" font-family="Arial, Helvetica, sans-serif" font-size="9" font-weight="800">LOCAL</text>

    <rect x="0" y="58" width="58" height="478" fill="#091827"/>
    <rect x="14" y="82" width="30" height="30" rx="9" fill="url(#accent)"/>
    <text x="29" y="102" text-anchor="middle" fill="#06131d" font-family="Arial, Helvetica, sans-serif" font-size="10" font-weight="900">VL</text>
    <rect x="18" y="137" width="22" height="22" rx="6" fill="#173146"/>
    <rect x="18" y="177" width="22" height="22" rx="6" fill="#112639"/>
    <rect x="18" y="217" width="22" height="22" rx="6" fill="#112639"/>

    <text x="84" y="96" fill="#72879c" font-family="Arial, Helvetica, sans-serif" font-size="10" font-weight="800" letter-spacing="1.6">NEW PRODUCT</text>
    <text x="84" y="122" fill="#f4f8fb" font-family="Arial, Helvetica, sans-serif" font-size="18" font-weight="800">Black shoulder bag</text>
    <rect x="474" y="88" width="70" height="25" rx="8" fill="#0b2d2b" stroke="#1d514a"/>
    <text x="509" y="105" text-anchor="middle" fill="#86f0d3" font-family="Arial, Helvetica, sans-serif" font-size="9" font-weight="900">READY</text>

    <g transform="translate(84 150)">
      <rect width="198" height="320" rx="18" fill="url(#card)" stroke="#26384c"/>
      <circle cx="99" cy="126" r="86" fill="#102c37" opacity="0.58"/>
      <path d="M64 131c0-27 16-46 35-46s35 19 35 46" fill="none" stroke="#223a4f" stroke-width="12" stroke-linecap="round"/>
      <rect x="41" y="126" width="116" height="119" rx="17" fill="#101a28" stroke="#314257"/>
      <rect x="51" y="137" width="96" height="98" rx="11" fill="none" stroke="#1b2a3a"/>
      <text x="99" y="195" text-anchor="middle" fill="#56677b" font-family="Arial, Helvetica, sans-serif" font-size="14" font-weight="900" letter-spacing="3">VLA</text>
      <rect x="12" y="16" width="76" height="22" rx="7" fill="#07141f" stroke="#285752"/>
      <text x="50" y="31" text-anchor="middle" fill="#b5efe2" font-family="Arial, Helvetica, sans-serif" font-size="8" font-weight="700">COLOR: BLACK</text>
      <rect x="104" y="54" width="82" height="22" rx="7" fill="#07141f" stroke="#285752"/>
      <text x="145" y="69" text-anchor="middle" fill="#b5efe2" font-family="Arial, Helvetica, sans-serif" font-size="8" font-weight="700">SHOULDER BAG</text>
      <path d="M17 102h164" stroke="#59e0c1" stroke-width="1.5" opacity="0.85"/>
      <circle cx="17" cy="102" r="3" fill="#59e0c1"/>
      <circle cx="181" cy="102" r="3" fill="#59e0c1"/>
      <rect x="12" y="280" width="115" height="22" rx="7" fill="#07141f" stroke="#285752"/>
      <text x="69" y="295" text-anchor="middle" fill="#b5efe2" font-family="Arial, Helvetica, sans-serif" font-size="8" font-weight="700">GOLD-TONE DETAILS</text>
    </g>

    <g transform="translate(300 150)">
      <rect width="245" height="320" rx="18" fill="#0d1a2b" stroke="#26384c"/>
      <text x="18" y="30" fill="#cbd8e3" font-family="Arial, Helvetica, sans-serif" font-size="12" font-weight="800">Generated listing</text>
      <rect x="198" y="14" width="30" height="20" rx="6" fill="#123345"/>
      <text x="213" y="28" text-anchor="middle" fill="#8ecaff" font-family="Arial, Helvetica, sans-serif" font-size="9" font-weight="900">AI</text>
      <path d="M16 48h213" stroke="#26384c"/>
      <text x="18" y="72" fill="#718398" font-family="Arial, Helvetica, sans-serif" font-size="9" font-weight="800" letter-spacing="1.2">TITLE</text>
      <rect x="17" y="84" width="211" height="48" rx="10" fill="#132238"/>
      <text x="29" y="105" fill="#f2f6f9" font-family="Arial, Helvetica, sans-serif" font-size="11" font-weight="800">Black shoulder bag with</text>
      <text x="29" y="121" fill="#f2f6f9" font-family="Arial, Helvetica, sans-serif" font-size="11" font-weight="800">gold-tone details</text>
      <text x="18" y="157" fill="#718398" font-family="Arial, Helvetica, sans-serif" font-size="9" font-weight="800" letter-spacing="1.2">DESCRIPTION</text>
      <rect x="17" y="170" width="211" height="9" rx="5" fill="#26384b"/>
      <rect x="17" y="188" width="195" height="9" rx="5" fill="#213247"/>
      <rect x="17" y="206" width="205" height="9" rx="5" fill="#26384b"/>
      <rect x="17" y="224" width="143" height="9" rx="5" fill="#213247"/>
      <rect x="17" y="258" width="92" height="28" rx="9" fill="#102b2d" stroke="#20504c"/>
      <text x="63" y="276" text-anchor="middle" fill="#98edd7" font-family="Arial, Helvetica, sans-serif" font-size="8" font-weight="800">✓ CLEAR LANGUAGE</text>
      <rect x="118" y="258" width="110" height="28" rx="9" fill="#10263a" stroke="#264864"/>
      <text x="173" y="276" text-anchor="middle" fill="#95c8f4" font-family="Arial, Helvetica, sans-serif" font-size="8" font-weight="800">✓ REVIEW READY</text>
    </g>
  </g>
</svg>
